<svg height="516" viewBox="0 0 855 516" width="855" xmlns="http://www.w3.org/2000/svg"><g fill="none" fill-rule="evenodd" transform="translate(3 3)"><path d="m10 10v489h790v-489z" stroke="#fff" stroke-width="10"/><g fill="#ec691f" stroke="#fff" stroke-opacity=".896" stroke-width="3"><rect height="23" rx="11.5" width="23" x="788.903" y="487.5"/><rect height="23" rx="11.5" width="23" x="788.903" y="-1.5"/><rect height="23" rx="11.5" width="23" x="-1.5" y="488.137"/><rect height="23" rx="11.5" width="23" x="-1.5" y="-1.5"/></g><g fill="#fff"><g><path d="m805 252h27v10h-27z" fill-opacity=".7"/><rect fill-opacity=".699" height="16.915" rx="5" stroke="#fff" stroke-opacity=".704" stroke-width="3" width="17" x="833.5" y="248.5"/></g><path d="m187.101668 109.515297-23.918023 7.334681c-1.028738-5.14717-3.471952-9.650877-7.329717-13.511254-3.857765-3.8603781-9.708621-5.790538-17.552743-5.790538-6.301016 0-11.444625 1.7049746-15.430982 5.114975-3.986357 3.41-5.979506 7.495505-5.979506 12.256638 0 8.235472 4.950724 13.382565 14.852321 15.441433l19.095841 3.66734c12.087663 2.316227 21.47475 7.173796 28.161543 14.572853 6.686792 7.399057 10.030138 15.988269 10.030138 25.767892 0 11.323775-4.46851 21.19976-13.405666 29.628251-8.937155 8.428491-20.928194 12.642673-35.973478 12.642673-8.615675 0-16.395384-1.286773-23.339361-3.860358-6.943976-2.573585-12.537652-6.015704-16.7811931-10.326459-4.2435414-4.310755-7.55474-8.8788-9.933695-13.704272-2.3789551-4.825472-3.8255952-9.811718-4.3399639-14.958888l24.689572-6.56261c.514369 7.206039 3.343354 13.286042 8.48704 18.240194 5.143687 4.954151 12.280445 7.431189 21.410489 7.431189 7.072569 0 12.537654-1.544127 16.395419-4.63243 3.857765-3.088302 5.786618-7.141637 5.786618-12.160128 0-3.989057-1.44664-7.431176-4.339964-10.326459-2.893323-2.895283-6.976063-4.857612-12.248342-5.887046l-19.095841-3.860359c-11.058926-2.316226-19.803062-6.852102-26.23267-13.607763-6.4296085-6.755661-9.6443644-15.280534-9.6443644-25.574874 0-11.967171 4.6935436-22.1005103 14.0807714-30.4003223 9.387228-8.299812 20.574579-12.4496557 33.562387-12.4496557 14.916691 0 26.329075 3.5707958 34.237493 10.7124944 7.908418 7.1416987 12.826994 15.4092166 14.755877 24.8028026zm105.895117 9.26486-37.998794 39.954709 38.770343 55.010107h-31.440627l-25.075346-36.287369-10.608801 11.195039v25.09233h-25.654008v-139.744973h25.654008v80.102436l32.790838-35.322279zm22.567812 36.673404h42.435202c-.385776-5.275849-2.31463-9.715217-5.786618-13.318236-3.471989-3.603019-8.615598-5.404502-15.430983-5.404502-6.172424 0-11.155295 1.93016-14.948764 5.790538s-5.88306 8.171068-6.268837 12.9322zm44.942737 24.706294 21.410488 6.369591c-2.443251 8.75019-7.490418 15.95612-15.141652 21.618007-7.651233 5.661887-17.006173 8.492788-28.065099 8.492788-13.630769 0-25.203891-4.600214-34.719711-13.800781-9.51582-9.200566-14.273659-21.52142-14.273659-36.962931 0-14.669435 4.629249-26.668596 13.887885-35.997842 9.258635-9.329246 20.188805-13.993799 32.790838-13.993799 14.659506 0 26.136185 4.34286 34.430379 13.02871 8.294195 8.685849 12.44123 20.749349 12.44123 36.190859 0 1.029434-.032148 2.155361-.096444 3.377814s-.128591 2.251871-.192887 3.088287c-.064296.836415-.096444 1.318955-.096444 1.447634h-67.896323c.257185 6.176604 2.700399 11.323697 7.329717 15.441433 4.629318 4.117737 10.158698 6.176574 16.588306 6.176574 10.930334 0 18.131387-4.8254 21.603376-14.476344zm66.931886-89.753332v28.373634h19.095841v22.776114h-19.095841v39.761691c0 3.989057.900132 6.819958 2.700422 8.492789 1.800291 1.67283 4.629276 2.509233 8.487041 2.509233 4.114949 0 6.751049-.257355 7.908378-.772072v21.231971c-3.729172 1.544151-8.551306 2.316215-14.466546 2.316215-9.258636 0-16.588279-2.573546-21.98915-7.720717-5.400871-5.14717-8.101266-12.3531-8.101266-21.618006v-44.201104h-17.166968v-22.776114h4.822182c4.75791 0 8.390584-1.383281 10.898132-4.149885 2.507547-2.766604 3.761302-6.401739 3.761302-10.905513v-13.318236zm74.840266 49.219569c-6.815385 0-12.537651 2.380531-17.166968 7.141663-4.629318 4.761133-6.943943 11.259337-6.943943 19.49481 0 8.235472 2.346772 14.765846 7.040386 19.591318 4.693614 4.825473 10.448027 7.238172 17.263412 7.238172 6.043832 0 10.865965-1.576297 14.466546-4.728939 3.600581-3.152641 6.043795-6.916453 7.329717-11.291548l22.567812 7.527699c-2.186067 8.750189-7.201086 16.277813-15.045208 22.583096-7.844122 6.305284-17.61698 9.457878-29.318867 9.457878-14.145138 0-26.007587-4.79323-35.587704-14.379834-9.580116-9.586605-14.370102-21.585766-14.370102-35.997842 0-14.540756 4.693544-26.572086 14.080772-36.094351s21.088939-14.283326 35.105485-14.283326c12.087663 0 21.989111 3.120425 29.704641 9.361369s12.666254 13.800737 14.852321 22.679606l-22.953587 7.720716c-1.285921-4.503774-3.664841-8.299755-7.136829-11.388057-3.471989-3.088302-8.101237-4.63243-13.887884-4.63243zm81.398432 18.336702v55.782179h-25.654008v-139.744973h25.654008v52.693892c5.658056-6.94868 14.209306-10.422968 25.654009-10.422968 11.573295 0 20.349578 3.506457 26.329114 10.519477 5.979535 7.013019 8.969258 16.052601 8.969258 27.119017v59.835555h-25.654008v-55.396143c0-5.661887-1.44664-10.229932-4.339964-13.704272s-7.297539-5.211484-13.212779-5.211484c-5.272278 0-9.483609 1.704975-12.634117 5.114975s-4.854328 7.881537-5.111513 13.414745zm-346.104078 240.363802h-26.232671v-95.929906l-39.349005 95.929906h-22.182037l-39.349006-95.157834v95.157834h-25.461121v-136.849704h35.105485l41.084991 98.825174 40.120555-98.825174h36.262809zm39.73478-58.291412h42.435202c-.385777-5.275849-2.31463-9.715217-5.786619-13.318236-3.471988-3.603019-8.615598-5.404502-15.430982-5.404502-6.172424 0-11.155296 1.93016-14.948765 5.790538s-5.88306 8.171068-6.268836 12.9322zm44.942736 24.706294 21.410488 6.369591c-2.443251 8.75019-7.490417 15.95612-15.141651 21.618007s-17.006173 8.492788-28.0651 8.492788c-13.630769 0-25.20389-4.600214-34.71971-13.800781s-14.273659-21.52142-14.273659-36.962931c0-14.669435 4.629248-26.668596 13.887884-35.997842s20.188806-13.993799 32.790838-13.993799c14.659507 0 26.136185 4.34286 34.43038 13.02871 8.294194 8.685849 12.441229 20.749349 12.441229 36.190859 0 1.029434-.032147 2.155361-.096443 3.377814s-.128591 2.251871-.192887 3.088286c-.064297.836416-.096444 1.318956-.096444 1.447635h-67.896323c.257184 6.176604 2.700399 11.323697 7.329717 15.441433 4.629317 4.117736 10.158698 6.176574 16.588306 6.176574 10.930334 0 18.131387-4.8254 21.603375-14.476344zm54.008439-24.706294h42.435202c-.385777-5.275849-2.31463-9.715217-5.786618-13.318236-3.471989-3.603019-8.615598-5.404502-15.430983-5.404502-6.172424 0-11.155295 1.93016-14.948764 5.790538s-5.88306 8.171068-6.268837 12.9322zm44.942737 24.706294 21.410488 6.369591c-2.443251 8.75019-7.490418 15.95612-15.141652 21.618007-7.651233 5.661887-17.006173 8.492788-28.065099 8.492788-13.63077 0-25.203891-4.600214-34.719711-13.800781s-14.273659-21.52142-14.273659-36.962931c0-14.669435 4.629249-26.668596 13.887885-35.997842 9.258635-9.329246 20.188805-13.993799 32.790837-13.993799 14.659507 0 26.136186 4.34286 34.43038 13.02871 8.294195 8.685849 12.44123 20.749349 12.44123 36.190859 0 1.029434-.032148 2.155361-.096444 3.377814s-.128591 2.251871-.192887 3.088286c-.064296.836416-.096444 1.318956-.096444 1.447635h-67.896323c.257185 6.176604 2.700399 11.323697 7.329717 15.441433s10.158698 6.176574 16.588306 6.176574c10.930334 0 18.131387-4.8254 21.603376-14.476344zm66.931886-89.753332v28.373634h19.095841v22.776114h-19.095841v39.761691c0 3.989057.900132 6.819958 2.700422 8.492789 1.800291 1.67283 4.629276 2.509233 8.487041 2.509233 4.114949 0 6.751049-.257355 7.908378-.772072v21.231971c-3.729173 1.544151-8.551306 2.316215-14.466546 2.316215-9.258636 0-16.588279-2.573546-21.98915-7.720717-5.400871-5.14717-8.101266-12.3531-8.101266-21.618007v-44.201103h-17.166968v-22.776114h4.822182c4.75791 0 8.390584-1.383281 10.898132-4.149885 2.507547-2.766604 3.761302-6.401739 3.761302-10.905513v-13.318236zm120.361664 123.33845h-24.496685c-.514368-1.930189-.771549-5.340138-.771549-10.22995-4.886502 8.492831-13.630638 12.739183-26.23267 12.739183-11.187518 0-19.99595-3.570796-26.425558-10.712495s-9.644364-16.052603-9.644364-26.732982v-60.028572h25.654009v54.817089c0 5.790566 1.44664 10.42295 4.339963 13.89729 2.893324 3.47434 7.233245 5.211484 13.019892 5.211484 5.658055 0 10.062271-1.704975 13.212779-5.114975 3.150508-3.410001 4.725738-7.945876 4.725738-13.607764v-55.203124h25.654009v77.786221c0 7.849434.321475 13.575575.964436 17.178595zm44.364075 36.673404h-25.654009v-131.63822h24.88246v11.581075c2.314659-3.989057 6.011628-7.270329 11.091018-9.843914 5.079391-2.573585 11.090984-3.860358 18.034961-3.860358 13.502177 0 24.175167 4.600214 32.019289 13.800781s11.766124 21.07105 11.766124 35.611806-4.114888 26.507747-12.344786 35.901333c-8.229899 9.393585-19.031478 14.090308-32.405063 14.090308-12.602032 0-21.731939-3.86032-27.389994-11.581075zm46.871609-84.155812c0-8.235473-2.218181-14.733678-6.654611-19.49481s-10.062253-7.141663-16.877637-7.141663c-6.815385 0-12.473355 2.4127-16.974081 7.238172s-6.751055 11.291508-6.751055 19.398301 2.250329 14.604998 6.751055 19.494809c4.500726 4.889812 10.158696 7.334681 16.974081 7.334681 6.815384 0 12.441207-2.412699 16.877637-7.238172 4.43643-4.825472 6.654611-11.355846 6.654611-19.591318z"/></g></g></svg>